**WATCH**ENJOY**COMMENT**SEED**


Video
ID                                       : 1
Format                                   : AVC
Format/Info                              : Advanced Video Codec
Format profile                           : High@L5.0
Format settings, CABAC                   : Yes
Format settings, ReFrames                : 11 frames
Codec ID                                 : V_MPEG4/ISO/AVC
Duration                                 : 23mn 9s
Bit rate                                 : 470 Kbps



Width                                    : 1 280 pixels
Height                                   : 720 pixels


Display aspect ratio                     : 16:9
Frame rate mode                          : Variable
Frame rate                               : 23.976 fps
Color space                              : YUV
Chroma subsampling                       : 4:2:0
Bit depth                                : 8 bits
Scan type                                : Progressive
Bits/(Pixel*Frame)                       : 0.021
Stream size                              : 75.6 MiB (87%)
Writing library                          : x264 core 128
Language                                 : English
Default                                  : Yes
Forced                                   : No

Audio
ID                                       : 2
Format                                   : Vorbis
Format settings, Floor                   : 1
Codec ID                                 : A_VORBIS
Duration                                 : 23mn 9s
Bit rate mode                            : Variable
Bit rate                                 : 56.0 Kbps
Channel(s)                               : 2 channels
Sampling rate                            : 44.1 KHz
Compression mode                         : Lossy
Stream size                              : 9.28 MiB (11%)
Writing library                          : aoTuV 20110424 (UTC 2011-04-24)
Language                                 : un
Default                                  : Yes
Forced                                   : No
Writing application                      : HandBrake

Text
ID                                       : 3
Format                                   : SSA
Codec ID                                 : S_TEXT/SSA
Codec ID/Info                            : Sub Station Alpha
Compression mode                         : Lossless
Default                                  : Yes
Forced                                   : No